<?xml version="1.0" standalone="no"?>
<!DOCTYPE svg PUBLIC "-//W3C//DTD SVG 20010904//EN"
 "http://www.w3.org/TR/2001/REC-SVG-20010904/DTD/svg10.dtd">
<svg version="1.0" xmlns="http://www.w3.org/2000/svg"
 width="695.000000pt" height="695.000000pt" viewBox="0 0 695.000000 695.000000"
 preserveAspectRatio="xMidYMid meet">
<metadata>
Created by potrace 1.14, written by Peter Selinger 2001-2017
</metadata>
<g transform="translate(0.000000,695.000000) scale(0.100000,-0.100000)"
fill="#000000" stroke="none">
<path d="M3190 6943 c-124 -12 -302 -38 -405 -59 -754 -155 -1423 -545 -1929
-1124 -457 -521 -737 -1148 -832 -1860 -23 -167 -26 -616 -6 -785 71 -595 248
-1086 558 -1552 125 -187 191 -272 331 -426 535 -589 1255 -972 2063 -1098
616 -95 1301 -3 1895 255 626 271 1176 746 1550 1337 696 1097 709 2526 36
3638 -576 950 -1562 1568 -2666 1671 -101 9 -512 12 -595 3z"/>
</g>
</svg>
