<?xml version="1.0" encoding="utf-8"?>
<!-- Generator: Adobe Illustrator 24.0.2, SVG Export Plug-In . SVG Version: 6.00 Build 0)  -->
<svg version="1.1" id="Layer_1" xmlns="http://www.w3.org/2000/svg" xmlns:xlink="http://www.w3.org/1999/xlink" x="0px" y="0px"
	 viewBox="0 0 800.8 695.6" style="enable-background:new 0 0 800.8 695.6;" xml:space="preserve">
<title>heart</title>
<path d="M6.8,251.6c8.8,34.3,26.8,65.5,52,90.4l341.6,353.6L742,342c25.2-24.9,43.2-56.1,52-90.4c9.1-33.8,9.1-69.4,0-103.2
	c-9.1-34.1-26.4-64-52-89.6c-25.6-25.6-55.5-42.9-89.6-52c-34.1-9.1-68.8-9.1-104,0s-65.1,26.4-89.6,52l-58.4,70.4L342,58.8
	c-25.6-25.6-55.5-42.9-89.6-52c-33.8-9.1-69.4-9.1-103.2,0c-34.3,8.8-65.5,26.8-90.4,52c-25.6,25.6-42.9,55.5-52,89.6
	C-2.3,182.2-2.3,217.8,6.8,251.6z"/>
</svg>
