<?xml version="1.0" encoding="utf-8"?>
<!-- Generator: Adobe Illustrator 24.0.2, SVG Export Plug-In . SVG Version: 6.00 Build 0)  -->
<svg version="1.1" id="heart" xmlns="http://www.w3.org/2000/svg" xmlns:xlink="http://www.w3.org/1999/xlink" x="0px" y="0px"
	 viewBox="0 0 800.8 695.6" style="enable-background:new 0 0 800.8 695.6;" xml:space="preserve">
<style type="text/css">
	.st0{fill:#ED1C24;}
	.st1{font-family:'Arial-Black';}
	.st2{font-size:236.3164px;}
</style>
<circle cx="400.4" cy="347.8" r="347"/>
<path class="st0" d="M142.3,284.7c5.8,22.5,17.6,42.9,34.1,59.3l224,231.8l224-231.8c16.5-16.3,28.3-36.8,34.1-59.3
	c6-22.2,6-45.5,0-67.7c-6-22.4-17.3-42-34.1-58.7c-16.8-16.8-36.4-28.1-58.7-34.1s-45.1-6-68.2,0c-23.1,6-42.7,17.3-58.7,34.1
	l-38.3,46.2l-38.3-46.2c-16.8-16.8-36.4-28.1-58.7-34.1c-22.2-6-45.5-6-67.7,0c-22.5,5.8-42.9,17.6-59.3,34.1
	c-16.8,16.8-28.1,36.4-34.1,58.7C136.4,239.2,136.4,262.6,142.3,284.7z"/>
<text transform="matrix(1 0 0 1 320.1219 425.5605)" class="st1 st2">8</text>
<path d="M-140.2,347.8"/>
</svg>
